<svg width="50" height="50" viewBox="0 0 50 50" fill="none" xmlns="http://www.w3.org/2000/svg">
<path d="M24.9998 0C18.2045 0 17.3576 0.0328125 14.6982 0.145313C12.0279 0.276563 10.2217 0.690625 8.62793 1.30938C6.9599 1.93909 5.44928 2.92502 4.20137 4.19844C2.9244 5.44343 1.93792 6.95489 1.3123 8.625C0.693555 10.2188 0.279492 12.025 0.148242 14.6953C0.0279297 17.3562 0.00292969 18.2016 0.00292969 24.9969C0.00292969 31.7922 0.0357422 32.6391 0.148242 35.2984C0.279492 37.9609 0.693555 39.775 1.3123 41.3688C1.94202 43.0368 2.92795 44.5474 4.20137 45.7953C5.44636 47.0723 6.95782 48.0588 8.62793 48.6844C10.2217 49.2953 12.0357 49.7172 14.6982 49.8484C17.3592 49.9688 18.2045 49.9938 24.9998 49.9938C31.7951 49.9938 32.642 49.9609 35.3014 49.8484C37.9639 49.7172 39.7779 49.2938 41.3717 48.6844C43.0397 48.0547 44.5503 47.0687 45.7982 45.7953C47.0769 44.5517 48.0636 43.0398 48.6873 41.3688C49.2982 39.775 49.7201 37.9609 49.8514 35.2984C49.9717 32.6375 49.9967 31.7922 49.9967 24.9969C49.9967 18.2016 49.9639 17.3547 49.8514 14.6953C49.7201 12.0328 49.2967 10.2094 48.6873 8.625C48.0576 6.95697 47.0717 5.44635 45.7982 4.19844C44.5546 2.91983 43.0427 1.93309 41.3717 1.30938C39.7779 0.690625 37.9639 0.276563 35.3014 0.145313C32.6404 0.025 31.7951 0 24.9998 0ZM24.9998 4.5C31.6732 4.5 32.4701 4.53281 35.1076 4.64531C37.5404 4.75938 38.8654 5.16563 39.7451 5.50938C40.8327 5.91082 41.817 6.54977 42.6264 7.37969C43.4549 8.18567 44.0914 9.16773 44.4889 10.2531C44.8326 11.1328 45.2389 12.4578 45.3529 14.8906C45.4654 17.5281 45.4982 18.3266 45.4982 24.9984C45.4982 31.6703 45.4654 32.4688 45.3436 35.1063C45.2123 37.5391 44.8061 38.8641 44.4639 39.7438C43.9904 40.9172 43.4623 41.7375 42.5904 42.625C41.7783 43.4497 40.7946 44.0856 39.7092 44.4875C38.8404 44.8312 37.4967 45.2375 35.0545 45.3516C32.4029 45.4641 31.6217 45.4969 24.9311 45.4969C18.2404 45.4969 17.4607 45.4641 14.8061 45.3422C12.3732 45.2109 11.0311 44.8047 10.1514 44.4625C8.96387 43.9891 8.14981 43.4609 7.27793 42.5891C6.39824 41.7094 5.83887 40.8719 5.40762 39.7078C5.05762 38.8391 4.65762 37.4953 4.52793 35.0531C4.43887 32.4328 4.39668 31.6203 4.39668 24.9609C4.39668 18.3047 4.43887 17.4906 4.52793 14.8375C4.65762 12.3953 5.05762 11.0547 5.40762 10.1828C5.83887 8.99375 6.39981 8.18125 7.27793 7.30156C8.14824 6.43125 8.96387 5.86875 10.1514 5.42812C11.0311 5.08594 12.3404 4.67969 14.7826 4.55781C17.4342 4.4625 18.2154 4.42813 24.8967 4.42813L24.9998 4.5ZM24.9998 12.1672C23.3144 12.1666 21.6454 12.4981 20.0882 13.1428C18.5309 13.7875 17.116 14.7327 15.9243 15.9245C14.7325 17.1162 13.7873 18.5311 13.1426 20.0884C12.4979 21.6456 12.1664 23.3146 12.167 25C12.1664 26.6854 12.4979 28.3544 13.1426 29.9116C13.7873 31.4689 14.7325 32.8838 15.9243 34.0755C17.116 35.2673 18.5309 36.2125 20.0882 36.8572C21.6454 37.5019 23.3144 37.8334 24.9998 37.8328C26.6852 37.8334 28.3542 37.5019 29.9114 36.8572C31.4687 36.2125 32.8836 35.2673 34.0753 34.0755C35.2671 32.8838 36.2123 31.4689 36.857 29.9116C37.5017 28.3544 37.8332 26.6854 37.8326 25C37.8332 23.3146 37.5017 21.6456 36.857 20.0884C36.2123 18.5311 35.2671 17.1162 34.0753 15.9245C32.8836 14.7327 31.4687 13.7875 29.9114 13.1428C28.3542 12.4981 26.6852 12.1666 24.9998 12.1672ZM24.9998 33.3328C20.3936 33.3328 16.667 29.6063 16.667 25C16.667 20.3937 20.3936 16.6672 24.9998 16.6672C29.6061 16.6672 33.3326 20.3937 33.3326 25C33.3326 29.6063 29.6061 33.3328 24.9998 33.3328ZM41.3498 11.6547C41.349 12.451 41.032 13.2145 40.4686 13.7773C39.9053 14.3401 39.1415 14.6563 38.3451 14.6562C37.9514 14.6562 37.5615 14.5787 37.1977 14.428C36.8339 14.2773 36.5033 14.0565 36.2249 13.778C35.9465 13.4996 35.7256 13.1691 35.5749 12.8053C35.4242 12.4415 35.3467 12.0516 35.3467 11.6578C35.3467 11.2641 35.4242 10.8741 35.5749 10.5104C35.7256 10.1466 35.9465 9.81603 36.2249 9.5376C36.5033 9.25917 36.8339 9.0383 37.1977 8.88762C37.5615 8.73693 37.9514 8.65937 38.3451 8.65937C39.9967 8.65938 41.3498 10.0031 41.3498 11.6547Z" fill="white"/>
</svg>
