<svg width="168" height="100" viewBox="0 0 168 100" fill="none" xmlns="http://www.w3.org/2000/svg">
<path d="M158.215 35.0368H154.387V23.9558C154.387 18.3747 149.844 13.8323 144.263 13.8323H137.448V10.1235C137.448 4.54247 132.906 0 127.325 0H119.81C114.229 0 109.686 4.54247 109.686 10.1235V34.9963H58.3113V10.1235C58.3113 4.54247 53.7689 0 48.1878 0H40.6726C35.0916 0 30.5491 4.54247 30.5491 10.1235V17.017H23.7366C18.1556 17.017 13.6131 21.5595 13.6131 27.1405V36.3898H9.78287C4.39002 36.3874 0 40.9299 0 46.5109V53.9475C0 59.5285 4.39002 64.071 9.78287 64.071H13.6107V75.1521C13.6107 80.7331 18.1532 85.2756 23.7342 85.2756H30.5468V88.9843C30.5468 94.5654 35.0892 99.1078 40.6702 99.1078H48.1855C53.7665 99.1078 58.309 94.5654 58.309 88.9843V62.7585H109.684V88.9843C109.684 94.5654 114.226 99.1078 119.807 99.1078H127.323C132.904 99.1078 137.446 94.5654 137.446 88.9843V82.0908H144.261C149.842 82.0908 154.385 77.5483 154.385 71.9673V62.7204H158.212C163.608 62.7204 167.995 58.1779 167.995 52.5969V45.1603C168 39.5793 163.61 35.0368 158.215 35.0368ZM9.78287 58.116C7.67242 58.116 5.955 56.2461 5.955 53.9475V46.5109C5.955 44.2123 7.67242 42.3424 9.78287 42.3424H13.6107V58.116H9.78287ZM23.7366 79.3206C21.438 79.3206 19.5681 77.4507 19.5681 75.1521V27.1381C19.5681 24.8395 21.438 22.9696 23.7366 22.9696H30.5491V79.3182H23.7366V79.3206ZM52.3563 88.9843C52.3563 91.283 50.4865 93.1528 48.1878 93.1528H40.6726C38.374 93.1528 36.5041 91.283 36.5041 88.9843V10.1235C36.5041 7.82487 38.374 5.955 40.6726 5.955H48.1878C50.4865 5.955 52.3563 7.82487 52.3563 10.1235V88.9843ZM58.3113 56.8035V40.9513H109.686V56.8035H58.3113ZM131.493 88.9843C131.493 91.283 129.624 93.1528 127.325 93.1528H119.81C117.511 93.1528 115.641 91.283 115.641 88.9843V10.1235C115.641 7.82487 117.511 5.955 119.81 5.955H127.325C129.624 5.955 131.493 7.82487 131.493 10.1235V88.9843ZM148.432 71.9673C148.432 74.266 146.562 76.1358 144.263 76.1358H137.448V19.7873H144.263C146.562 19.7873 148.432 21.6571 148.432 23.9558V71.9673ZM162.045 52.5969C162.045 54.8955 160.328 56.7654 158.217 56.7654H154.389V40.9918H158.217C160.328 40.9918 162.045 42.8617 162.045 45.1603V52.5969Z" fill="white"/>
</svg>
