<svg width="50" height="50" viewBox="0 0 50 50" fill="none" xmlns="http://www.w3.org/2000/svg">
<g clip-path="url(#clip0)">
<path d="M32.674 0H17.3256C3.31934 0 -0.000976562 3.32031 -0.000976562 17.3266V32.675C-0.000976562 46.6813 3.31934 50.0016 17.3256 50.0016H32.674C46.6803 50.0016 50.0006 46.6813 50.0006 32.675V17.3266C50.0006 3.32031 46.6475 0 32.674 0ZM40.3647 35.6687H36.735C35.36 35.6687 34.9365 34.5781 32.4631 32.0719C30.3146 29.9891 29.3631 29.7125 28.8334 29.7125C28.085 29.7125 27.8725 29.9234 27.8725 30.95V34.2297C27.8725 35.1094 27.5959 35.6375 25.2678 35.6375C21.4178 35.6375 17.1459 33.3094 14.1506 28.9719C9.6334 22.6156 8.39746 17.8547 8.39746 16.8703C8.39746 16.3406 8.6084 15.8453 9.62559 15.8453H13.2631C14.1834 15.8453 14.5334 16.2687 14.8912 17.2531C16.6896 22.4453 19.685 26.9937 20.9209 26.9937C21.3772 26.9937 21.5881 26.7828 21.5881 25.6187V20.2563C21.449 17.7828 20.1475 17.5703 20.1475 16.6922C20.1475 16.2687 20.4975 15.8453 21.0584 15.8453H26.7787C27.5522 15.8453 27.8365 16.2687 27.8365 17.1797V24.4141C27.8365 25.1953 28.1865 25.4719 28.3975 25.4719C28.8537 25.4719 29.2443 25.1953 30.0896 24.3484C32.7021 21.4188 34.574 16.9016 34.574 16.9016C34.8178 16.3719 35.2412 15.8766 36.1615 15.8766H39.799C40.8897 15.8766 41.1334 16.4375 40.8897 17.2188C40.4334 19.3344 35.9818 25.6172 35.9818 25.6172C35.599 26.2516 35.4521 26.5281 35.9818 27.2359C36.3725 27.7656 37.6428 28.8641 38.4881 29.8484C40.0428 31.6141 41.2381 33.0953 41.5568 34.1203C41.9146 35.1375 41.3865 35.6672 40.36 35.6672L40.3647 35.6687Z" fill="#F8F8F8"/>
</g>
<defs>
<clipPath id="clip0">
<rect width="50" height="50" fill="white"/>
</clipPath>
</defs>
</svg>
