<svg width="50" height="50" viewBox="0 0 50 50" fill="none" xmlns="http://www.w3.org/2000/svg">
<g clip-path="url(#clip0)">
<path d="M49.672 14.5303C49.672 10.1357 46.4396 6.60059 42.4454 6.60059C37.0353 6.34766 31.5177 6.25 25.879 6.25H24.1212C18.4962 6.25 12.9689 6.34766 7.5587 6.60156C3.57432 6.60156 0.341902 10.1562 0.341902 14.5508C0.0977618 18.0264 -0.0057538 21.5029 0.000105574 24.9795C-0.00966005 28.4561 0.101017 31.9359 0.332137 35.4189C0.332137 39.8135 3.56456 43.3779 7.54893 43.3779C13.2325 43.6416 19.0626 43.7588 24.9903 43.749C30.9278 43.7686 36.7416 43.6449 42.4317 43.3779C46.4259 43.3779 49.6583 39.8135 49.6583 35.4189C49.8927 31.9326 50.0001 28.4561 49.9903 24.9697C50.0125 21.4932 49.9064 18.0133 49.672 14.5303ZM20.2149 34.5596V15.3701L34.3751 24.96L20.2149 34.5596Z" fill="white"/>
</g>
<defs>
<clipPath id="clip0">
<rect width="50" height="50" fill="white"/>
</clipPath>
</defs>
</svg>
